<mxfile host="app.diagrams.net" agent="Mozilla/5.0 (Windows NT 10.0; Win64; x64) AppleWebKit/537.36 (KHTML, like Gecko) Chrome/134.0.0.0 Safari/537.36" version="26.1.2">
  <diagram id="C5RBs43oDa-KdzZeNtuy" name="Page-1">
    <mxGraphModel dx="2261" dy="778" grid="1" gridSize="10" guides="1" tooltips="1" connect="1" arrows="1" fold="1" page="1" pageScale="1" pageWidth="827" pageHeight="1169" math="0" shadow="0">
      <root>
        <mxCell id="WIyWlLk6GJQsqaUBKTNV-0" />
        <mxCell id="WIyWlLk6GJQsqaUBKTNV-1" parent="WIyWlLk6GJQsqaUBKTNV-0" />
        <mxCell id="H9LgJbMJzpOpMejJTg3P-3" style="edgeStyle=orthogonalEdgeStyle;rounded=0;orthogonalLoop=1;jettySize=auto;html=1;entryX=0.5;entryY=0;entryDx=0;entryDy=0;" edge="1" parent="WIyWlLk6GJQsqaUBKTNV-1" source="H9LgJbMJzpOpMejJTg3P-0" target="H9LgJbMJzpOpMejJTg3P-2">
          <mxGeometry relative="1" as="geometry" />
        </mxCell>
        <mxCell id="H9LgJbMJzpOpMejJTg3P-0" value="Start" style="strokeWidth=2;html=1;shape=mxgraph.flowchart.terminator;whiteSpace=wrap;" vertex="1" parent="WIyWlLk6GJQsqaUBKTNV-1">
          <mxGeometry x="170" y="100" width="100" height="60" as="geometry" />
        </mxCell>
        <mxCell id="H9LgJbMJzpOpMejJTg3P-1" value="End" style="strokeWidth=2;html=1;shape=mxgraph.flowchart.terminator;whiteSpace=wrap;" vertex="1" parent="WIyWlLk6GJQsqaUBKTNV-1">
          <mxGeometry x="170" y="820" width="100" height="60" as="geometry" />
        </mxCell>
        <mxCell id="H9LgJbMJzpOpMejJTg3P-26" style="edgeStyle=orthogonalEdgeStyle;rounded=0;orthogonalLoop=1;jettySize=auto;html=1;" edge="1" parent="WIyWlLk6GJQsqaUBKTNV-1" source="H9LgJbMJzpOpMejJTg3P-2" target="H9LgJbMJzpOpMejJTg3P-6">
          <mxGeometry relative="1" as="geometry" />
        </mxCell>
        <mxCell id="H9LgJbMJzpOpMejJTg3P-2" value="Initialize Game: Word.Text = c?????r" style="rounded=1;whiteSpace=wrap;html=1;absoluteArcSize=1;arcSize=14;strokeWidth=2;" vertex="1" parent="WIyWlLk6GJQsqaUBKTNV-1">
          <mxGeometry x="152.5" y="200" width="135" height="40" as="geometry" />
        </mxCell>
        <mxCell id="H9LgJbMJzpOpMejJTg3P-4" value="user clicks button" style="rounded=1;whiteSpace=wrap;html=1;absoluteArcSize=1;arcSize=14;strokeWidth=2;" vertex="1" parent="WIyWlLk6GJQsqaUBKTNV-1">
          <mxGeometry x="152.5" y="400" width="135" height="40" as="geometry" />
        </mxCell>
        <mxCell id="H9LgJbMJzpOpMejJTg3P-27" style="edgeStyle=orthogonalEdgeStyle;rounded=0;orthogonalLoop=1;jettySize=auto;html=1;entryX=0.5;entryY=0;entryDx=0;entryDy=0;" edge="1" parent="WIyWlLk6GJQsqaUBKTNV-1" source="H9LgJbMJzpOpMejJTg3P-6" target="H9LgJbMJzpOpMejJTg3P-4">
          <mxGeometry relative="1" as="geometry" />
        </mxCell>
        <mxCell id="H9LgJbMJzpOpMejJTg3P-6" value="Get input of the user&lt;br&gt;Guesses = Guess.Text" style="shape=parallelogram;html=1;strokeWidth=2;perimeter=parallelogramPerimeter;whiteSpace=wrap;rounded=1;arcSize=12;size=0.23;" vertex="1" parent="WIyWlLk6GJQsqaUBKTNV-1">
          <mxGeometry x="126.25" y="280" width="187.5" height="80" as="geometry" />
        </mxCell>
        <mxCell id="H9LgJbMJzpOpMejJTg3P-20" style="edgeStyle=orthogonalEdgeStyle;rounded=0;orthogonalLoop=1;jettySize=auto;html=1;" edge="1" parent="WIyWlLk6GJQsqaUBKTNV-1" source="H9LgJbMJzpOpMejJTg3P-8" target="H9LgJbMJzpOpMejJTg3P-12">
          <mxGeometry relative="1" as="geometry" />
        </mxCell>
        <mxCell id="H9LgJbMJzpOpMejJTg3P-23" style="edgeStyle=orthogonalEdgeStyle;rounded=0;orthogonalLoop=1;jettySize=auto;html=1;entryX=0.5;entryY=0;entryDx=0;entryDy=0;" edge="1" parent="WIyWlLk6GJQsqaUBKTNV-1" source="H9LgJbMJzpOpMejJTg3P-8" target="H9LgJbMJzpOpMejJTg3P-22">
          <mxGeometry relative="1" as="geometry">
            <Array as="points">
              <mxPoint x="38" y="551" />
              <mxPoint x="38" y="580" />
            </Array>
          </mxGeometry>
        </mxCell>
        <mxCell id="H9LgJbMJzpOpMejJTg3P-8" value="Compare Guesses == wordToGuess" style="strokeWidth=2;html=1;shape=mxgraph.flowchart.decision;whiteSpace=wrap;" vertex="1" parent="WIyWlLk6GJQsqaUBKTNV-1">
          <mxGeometry x="145" y="481" width="150" height="139" as="geometry" />
        </mxCell>
        <mxCell id="H9LgJbMJzpOpMejJTg3P-32" style="edgeStyle=orthogonalEdgeStyle;rounded=0;orthogonalLoop=1;jettySize=auto;html=1;" edge="1" parent="WIyWlLk6GJQsqaUBKTNV-1" source="H9LgJbMJzpOpMejJTg3P-12" target="H9LgJbMJzpOpMejJTg3P-29">
          <mxGeometry relative="1" as="geometry">
            <Array as="points">
              <mxPoint x="541" y="680" />
            </Array>
          </mxGeometry>
        </mxCell>
        <mxCell id="H9LgJbMJzpOpMejJTg3P-12" value="Add to wrongGuesses&lt;br&gt;&amp;amp; update WrongGuesses&lt;div&gt;&lt;br/&gt;&lt;/div&gt;" style="shape=parallelogram;html=1;strokeWidth=2;perimeter=parallelogramPerimeter;whiteSpace=wrap;rounded=1;arcSize=12;size=0.23;" vertex="1" parent="WIyWlLk6GJQsqaUBKTNV-1">
          <mxGeometry x="310" y="640" width="195" height="80" as="geometry" />
        </mxCell>
        <mxCell id="H9LgJbMJzpOpMejJTg3P-24" style="edgeStyle=orthogonalEdgeStyle;rounded=0;orthogonalLoop=1;jettySize=auto;html=1;" edge="1" parent="WIyWlLk6GJQsqaUBKTNV-1" source="H9LgJbMJzpOpMejJTg3P-22" target="H9LgJbMJzpOpMejJTg3P-1">
          <mxGeometry relative="1" as="geometry" />
        </mxCell>
        <mxCell id="H9LgJbMJzpOpMejJTg3P-22" value="&lt;div&gt;Reveal full word and&lt;br&gt;show &quot;Correct&quot;&lt;/div&gt;" style="shape=parallelogram;html=1;strokeWidth=2;perimeter=parallelogramPerimeter;whiteSpace=wrap;rounded=1;arcSize=12;size=0.23;" vertex="1" parent="WIyWlLk6GJQsqaUBKTNV-1">
          <mxGeometry x="-60" y="640" width="195" height="80" as="geometry" />
        </mxCell>
        <mxCell id="H9LgJbMJzpOpMejJTg3P-25" style="edgeStyle=orthogonalEdgeStyle;rounded=0;orthogonalLoop=1;jettySize=auto;html=1;entryX=0.5;entryY=0;entryDx=0;entryDy=0;entryPerimeter=0;" edge="1" parent="WIyWlLk6GJQsqaUBKTNV-1" source="H9LgJbMJzpOpMejJTg3P-4" target="H9LgJbMJzpOpMejJTg3P-8">
          <mxGeometry relative="1" as="geometry" />
        </mxCell>
        <mxCell id="H9LgJbMJzpOpMejJTg3P-34" style="edgeStyle=orthogonalEdgeStyle;rounded=0;orthogonalLoop=1;jettySize=auto;html=1;entryX=0.5;entryY=1;entryDx=0;entryDy=0;" edge="1" parent="WIyWlLk6GJQsqaUBKTNV-1" source="H9LgJbMJzpOpMejJTg3P-29" target="H9LgJbMJzpOpMejJTg3P-33">
          <mxGeometry relative="1" as="geometry" />
        </mxCell>
        <mxCell id="H9LgJbMJzpOpMejJTg3P-29" value="&lt;div&gt;Show &quot;Try again&quot;&lt;/div&gt;" style="shape=parallelogram;html=1;strokeWidth=2;perimeter=parallelogramPerimeter;whiteSpace=wrap;rounded=1;arcSize=12;size=0.23;" vertex="1" parent="WIyWlLk6GJQsqaUBKTNV-1">
          <mxGeometry x="443" y="440" width="195" height="80" as="geometry" />
        </mxCell>
        <mxCell id="H9LgJbMJzpOpMejJTg3P-35" style="edgeStyle=orthogonalEdgeStyle;rounded=0;orthogonalLoop=1;jettySize=auto;html=1;entryX=1;entryY=0.5;entryDx=0;entryDy=0;" edge="1" parent="WIyWlLk6GJQsqaUBKTNV-1" source="H9LgJbMJzpOpMejJTg3P-33" target="H9LgJbMJzpOpMejJTg3P-6">
          <mxGeometry relative="1" as="geometry" />
        </mxCell>
        <mxCell id="H9LgJbMJzpOpMejJTg3P-33" value="Clear Guess box" style="rounded=1;whiteSpace=wrap;html=1;absoluteArcSize=1;arcSize=14;strokeWidth=2;" vertex="1" parent="WIyWlLk6GJQsqaUBKTNV-1">
          <mxGeometry x="473" y="300" width="135" height="40" as="geometry" />
        </mxCell>
        <mxCell id="H9LgJbMJzpOpMejJTg3P-36" value="True" style="text;html=1;align=center;verticalAlign=middle;resizable=0;points=[];autosize=1;strokeColor=none;fillColor=none;" vertex="1" parent="WIyWlLk6GJQsqaUBKTNV-1">
          <mxGeometry x="75" y="528" width="50" height="30" as="geometry" />
        </mxCell>
        <mxCell id="H9LgJbMJzpOpMejJTg3P-37" value="False" style="text;html=1;align=center;verticalAlign=middle;resizable=0;points=[];autosize=1;strokeColor=none;fillColor=none;" vertex="1" parent="WIyWlLk6GJQsqaUBKTNV-1">
          <mxGeometry x="305" y="528" width="50" height="30" as="geometry" />
        </mxCell>
      </root>
    </mxGraphModel>
  </diagram>
</mxfile>
